<svg width="113" height="113" viewBox="0 0 113 113" fill="none" xmlns="http://www.w3.org/2000/svg">
<path d="M62.7418 83.2196C62.4445 84.0837 66.1848 89.1977 68.6637 88.2494C71.143 87.3021 71.5574 81.0849 70.5705 80.4236C69.5856 79.7604 63.0391 82.3568 62.7415 83.2197L62.7418 83.2196Z" fill="#D2042D"/>
<path d="M52.43 79.1608C52.2787 79.2148 52.1091 79.221 51.943 79.1678C51.5495 79.0388 51.336 78.6143 51.4657 78.2193C51.7792 77.2692 52.6635 76.4774 53.9576 75.9916C55.1535 75.546 56.8882 75.3245 57.8786 75.9105C58.2355 76.1205 58.3543 76.5813 58.1432 76.9386C57.9327 77.2944 57.4742 77.4124 57.1151 77.2032C56.7798 77.0052 55.6958 76.9608 54.4872 77.3986C53.6392 77.7176 53.0582 78.1884 52.8943 78.692C52.8166 78.9176 52.6406 79.0856 52.43 79.1608Z" fill="#D2042D"/>
<path d="M71.9274 72.1974C71.7761 72.2514 71.6065 72.2576 71.4414 72.204C71.0479 72.075 70.8319 71.6502 70.9631 71.2559C71.2766 70.3058 72.1609 69.514 73.4535 69.0275C74.6856 68.569 76.3852 68.36 77.3756 68.946C77.7325 69.156 77.8513 69.6168 77.6402 69.9741C77.4297 70.3299 76.969 70.4487 76.6121 70.2387C76.2764 70.0396 75.0821 69.9877 73.9842 70.4341C73.1362 70.7531 72.5563 71.2235 72.3916 71.7249C72.314 71.9542 72.1379 72.1222 71.9274 72.1974Z" fill="#D2042D"/>
<path d="M69.0465 94.758C58.655 98.4693 46.7709 92.1984 43.0597 81.8072C40.81 75.5081 41.8375 68.6192 45.7953 63.2371C42.6528 60.1844 38.8888 53.3006 36.0501 45.3523C32.1974 34.565 30.3888 22.8959 34.3834 21.4692C38.3373 20.0571 44.466 30.4803 48.2246 41.0042C50.4399 47.2071 51.8099 53.1824 52.0662 57.6666C53.6941 56.7377 55.2719 56.0877 57.1966 55.6402C54.5851 52.001 51.8983 46.5586 49.7234 40.4688C45.7509 29.3461 47.6646 27.7255 51.0364 26.5213L51.5411 26.3423C53.8142 25.5305 68.9873 23.7044 72.6957 31.2566C72.976 31.8266 73.0031 32.4289 72.7718 32.9961C72.3858 33.9475 71.3298 34.7363 69.6326 35.3425C67.1501 36.2291 63.6949 36.5866 60.0105 36.3508C60.4717 37.6215 60.9462 38.8911 61.414 40.1458C63.6617 46.1725 65.7941 51.8869 65.7303 55.4333C72.6536 56.786 78.3733 61.6816 80.753 68.3448C84.4643 78.7363 79.4384 91.0462 69.0472 94.7574L69.0465 94.758ZM35.3927 24.2997C33.441 24.9968 32.9726 32.2743 37.4635 44.8488C40.381 53.0177 44.2383 59.9755 47.2948 62.5756L47.8465 63.0437L47.3989 63.6115C43.4149 68.6606 42.3227 75.2744 44.4754 81.3019C47.9082 90.9136 58.5208 95.9398 68.1336 92.5066C77.7453 89.0739 82.7739 78.4617 79.3411 68.8497C77.0682 62.4857 71.5059 57.8677 64.8223 56.7954L64.1117 56.682L64.1937 55.9665C64.5545 52.8643 62.3462 46.9407 60.0065 40.6699C59.4015 39.0487 58.7883 37.4009 58.2024 35.7605L57.8045 34.6465L58.9825 34.7599C62.8315 35.1346 66.6232 34.8227 69.1298 33.9274C70.3348 33.4971 71.1762 32.9382 71.382 32.4307C71.4524 32.2609 71.4413 32.1017 71.35 31.9155C68.1214 25.3402 54.06 27.0351 52.048 27.7537L51.5432 27.9327C49.3064 28.7316 47.3754 29.4212 51.1399 39.9618C53.4633 46.4672 56.3644 52.1913 59.0992 55.6703L59.8695 56.6501L58.6435 56.8729C57.5359 57.0743 56.5676 57.3262 55.686 57.641C54.3592 58.1149 53.0428 58.7767 51.7726 59.6062L50.6197 60.3591L50.611 58.9813C50.5822 54.615 49.1634 48.0807 46.8149 41.5051C42.319 28.9374 37.3439 23.6028 35.3921 24.2998L35.3927 24.2997Z" fill="#D2042D"/>
</svg>
