<svg width="112" height="112" viewBox="0 0 112 112" fill="none" xmlns="http://www.w3.org/2000/svg">
<path d="M81.9409 69.0485L49.9708 84.8621C49.3419 85.1732 48.5724 84.913 48.2614 84.2842L37.4717 62.4709C37.1607 61.842 37.4208 61.0725 38.0497 60.7615L70.0096 44.9529C70.6385 44.6418 71.408 44.902 71.7191 45.5309L82.5087 67.3441C82.8198 67.973 82.5596 68.7425 81.9307 69.0536L81.9409 69.0485ZM49.9945 82.0033L79.6659 67.3268L70.0081 47.8004L40.3251 62.4827L49.9835 82.0088L49.9945 82.0033Z" fill="#D2042D"/>
<path d="M73.713 45.9682L36.6296 64.311C36.0007 64.6221 35.2313 64.3619 34.9202 63.733L30.5353 54.8682C30.2243 54.2393 30.4844 53.4699 31.1133 53.1588L68.1967 34.816C68.8256 34.5049 69.5951 34.7651 69.9061 35.3939L74.291 44.2587C74.6021 44.8876 74.3419 45.6571 73.713 45.9682ZM36.6417 61.458L71.438 44.2464L68.1846 37.669L33.3898 54.8798L36.6432 61.4572L36.6417 61.458Z" fill="#D2042D"/>
<path d="M50.7856 46.2749C50.671 46.3316 50.5513 46.3766 50.4314 46.3928C48.9921 46.6208 41.7168 47.7419 39.477 46.9846C36.7588 46.0655 35.2989 43.1141 36.218 40.3959C37.1371 37.6777 40.0885 36.2178 42.8067 37.1368C45.0463 37.8941 50.1483 43.201 51.1486 44.2435C51.4725 44.5813 51.5786 45.0841 51.4283 45.5287C51.3184 45.8536 51.0774 46.1148 50.78 46.2619L50.7856 46.2749ZM39.9703 39.6936C39.3641 39.9934 38.871 40.522 38.6455 41.2171C38.1774 42.6017 38.9186 44.1002 40.3033 44.5688C41.2433 44.8866 44.5661 44.6101 47.5527 44.2292C45.41 42.1141 42.9199 39.872 41.9969 39.56C41.3131 39.3288 40.5882 39.3885 39.982 39.6883L39.9703 39.6936Z" fill="#D2042D"/>
<path d="M50.7857 46.2749C50.4882 46.422 50.1341 46.4544 49.8095 46.3452C49.3649 46.1948 49.0302 45.8051 48.9577 45.3429C48.7297 43.9036 47.6086 36.6283 48.3716 34.4C49.2907 31.6818 52.2421 30.2219 54.9603 31.141C57.6785 32.0601 59.1384 35.0115 58.2193 37.7297C57.4621 39.9693 52.1552 45.0713 51.1013 46.0773C51.0034 46.1681 50.8953 46.2364 50.7925 46.2872L50.7857 46.2749ZM52.1181 33.6848C51.5119 33.9847 51.0189 34.5133 50.7933 35.2084C50.4755 36.1484 50.752 39.4712 51.1329 42.4577C53.2594 40.3094 55.4901 37.825 55.8021 36.9019C56.2703 35.5174 55.529 34.0189 54.1443 33.5503C53.4605 33.3191 52.7356 33.3789 52.1294 33.6787L52.1181 33.6848Z" fill="#D2042D"/>
<path d="M65.9603 76.9532C65.3314 77.2643 64.5619 77.0041 64.2509 76.3752L49.0762 45.6969C48.7651 45.068 49.0253 44.2985 49.6542 43.9874C50.2831 43.6764 51.0526 43.9365 51.3637 44.5654L66.5383 75.2438C66.8494 75.8727 66.5892 76.6421 65.9603 76.9532Z" fill="#D2042D"/>
</svg>
