<svg width="47" height="46" viewBox="0 0 47 46" fill="none" xmlns="http://www.w3.org/2000/svg">
<path d="M23.5376 41.6075C18.2253 34.5583 9.52302 29.8362 6.03933 21.5005C4.04201 16.7213 4.29409 11.0939 8.36978 7.47859C11.0452 5.1051 14.362 4.58077 17.7092 5.7066C19.0259 6.14985 20.2315 6.9451 21.3671 7.71407C22.6953 8.61358 23.1041 9.34069 23.7119 10.6996C24.0694 11.4983 25.4528 11.2811 25.6135 10.456C26.5677 5.56834 32.5434 4.9822 36.619 6.05224C41.5036 7.33458 43.0225 12.2855 42.8164 16.7221C42.5693 22.0267 37.5768 25.7559 34.1218 29.2553C29.9246 33.5057 26.2743 38.2522 22.5609 42.9026C21.7448 43.9242 23.2064 45.3768 24.0325 44.3428C28.6808 38.5237 33.3701 32.8761 38.6989 27.6355C43.0582 23.3479 45.616 18.8813 44.6431 12.6909C43.8715 7.77859 40.1268 4.28663 35.1109 3.67416C30.3644 3.09474 24.6213 4.72354 23.6079 9.91624C24.2418 9.83517 24.8755 9.7541 25.5094 9.67268C25.2376 9.06484 25.0225 7.98847 24.4707 7.53746C23.2113 6.50812 21.9158 5.56862 20.4976 4.75652C17.942 3.2927 15.0844 2.75013 12.1785 3.25694C6.37742 4.26912 2.88776 10.0127 2.72344 15.3562C2.34621 27.6378 15.2225 33.9862 21.7419 42.6364C22.5297 43.6811 24.337 42.6672 23.5391 41.6084L23.5376 41.6075Z" fill="#D2042D"/>
</svg>
