<svg width="65" height="65" viewBox="0 0 65 65" fill="none" xmlns="http://www.w3.org/2000/svg">
<path d="M17.2338 33.3201C20.1721 34.6328 23.2636 35.5974 26.4255 36.189C27.7059 39.1432 29.3305 41.9415 31.2611 44.5174C31.3811 44.676 31.5661 44.7718 31.766 44.7812H31.7937C31.9856 44.7812 32.1627 44.7013 32.2881 44.5615C34.2788 42.3577 36.0148 39.9272 37.4838 37.3475L53.4215 61.5118C53.5519 61.7086 53.7627 61.8138 53.9784 61.8138C54.1064 61.8138 54.2318 61.7776 54.3434 61.7032C54.6484 61.5019 54.7367 61.0877 54.5353 60.7813L38.5976 36.6158C41.5493 36.2815 44.4617 35.6433 47.2775 34.6823C47.4655 34.6168 47.6133 34.4715 47.6842 34.285C47.7546 34.0986 47.7387 33.8908 47.6401 33.7187C46.0318 30.9283 44.0983 28.3316 41.8905 25.993C42.5887 22.8509 42.919 19.6289 42.8699 16.4125C42.8674 16.2141 42.7781 16.0261 42.6194 15.9022C42.4622 15.7782 42.2599 15.7291 42.065 15.7703C38.9165 16.4363 35.8503 17.4717 32.9403 18.8523C30.1712 17.2149 27.209 15.9061 24.1339 14.9574C23.9435 14.8999 23.7382 14.9281 23.5715 15.0387C23.4049 15.1478 23.2958 15.3263 23.2745 15.5237C22.9333 18.7204 22.9705 21.9596 23.3866 25.1563C20.9705 27.2867 18.8069 29.7003 16.9611 32.3306C16.8465 32.4933 16.8103 32.6971 16.8624 32.8905C16.9155 33.0824 17.0514 33.2382 17.2339 33.3195L17.2338 33.3201ZM24.5276 25.9246C24.6997 25.7768 24.782 25.5526 24.7513 25.329C24.3447 22.3961 24.2688 19.4231 24.5192 16.481C27.3265 17.4098 30.0292 18.6516 32.5609 20.1785C32.7553 20.2955 32.9929 20.3079 33.1967 20.2063C35.8562 18.9149 38.6611 17.9226 41.5423 17.2507C41.525 20.2063 41.1813 23.1605 40.5098 26.0412C40.4608 26.2608 40.5232 26.4914 40.6789 26.6541C42.7295 28.7845 44.5406 31.143 46.069 33.6761C43.2508 34.5757 40.3353 35.1579 37.3891 35.4139C37.3787 35.4139 37.3702 35.4218 37.3613 35.4218C37.2641 35.4337 37.1669 35.4605 37.0776 35.5205H37.0752C36.9914 35.578 36.9259 35.6578 36.8768 35.7417C36.8713 35.7496 36.8619 35.755 36.857 35.7645C35.4644 38.372 33.7804 40.8228 31.8444 43.0588C30.1186 40.6576 28.6635 38.0645 27.5111 35.341C27.4233 35.1347 27.2353 34.9839 27.0142 34.9452C24.1041 34.4255 21.2521 33.5834 18.5276 32.4319C20.2757 30.0486 22.293 27.8636 24.5276 25.9246Z" fill="#D2042D"/>
<path d="M21.6911 13.4024C21.8206 13.5968 22.0323 13.7025 22.248 13.7025C22.3745 13.7025 22.5 13.6663 22.6145 13.5919C22.9195 13.3895 23.0048 12.9764 22.8025 12.6685L19.4273 7.54771C19.226 7.23974 18.8104 7.15743 18.5054 7.35975C18.1989 7.56209 18.1151 7.97518 18.316 8.28313L21.6911 13.4024Z" fill="#D2042D"/>
<path d="M15.3029 21.4068L9.56121 19.2496C9.22002 19.1217 8.83519 19.2952 8.70427 19.6389C8.57385 19.9826 8.74841 20.3679 9.09208 20.4968L14.8352 22.654C14.914 22.6818 14.9909 22.6967 15.0698 22.6967C15.34 22.6967 15.5934 22.5315 15.6946 22.2647C15.8225 21.9216 15.6481 21.5362 15.3029 21.4068Z" fill="#D2042D"/>
<path d="M8.63531 35.8236C8.69532 35.8236 8.75235 35.8157 8.81235 35.7998L14.7261 34.1687C15.0831 34.0715 15.2909 33.7036 15.1922 33.3505C15.0965 32.9949 14.731 32.7881 14.373 32.8843L8.45926 34.5139C8.10468 34.6111 7.8969 34.98 7.9931 35.3331C8.07543 35.6292 8.34322 35.8236 8.63531 35.8236Z" fill="#D2042D"/>
<path d="M17.0586 48.5951C17.253 48.5951 17.4464 48.5113 17.5798 48.3447L21.4053 43.5502C21.6344 43.2625 21.5878 42.8425 21.2987 42.6134C21.015 42.3843 20.594 42.4309 20.3644 42.7185L16.5389 47.5139C16.3068 47.8006 16.3564 48.2201 16.6431 48.4507C16.7641 48.5469 16.9133 48.5951 17.0586 48.5951Z" fill="#D2042D"/>
<path d="M31.6875 46.5181C31.2649 46.4874 31.0081 46.7859 30.9932 47.1539L30.7145 53.2833C30.6946 53.6483 30.9798 53.9602 31.3502 53.9776H31.378C31.7326 53.9776 32.0271 53.6989 32.044 53.3394L32.3227 47.2113C32.3386 46.8459 32.0549 46.534 31.6875 46.5181Z" fill="#D2042D"/>
<path d="M49.6971 35.7525L55.4388 37.9097C55.5147 37.9375 55.5945 37.9523 55.6734 37.9523C55.9412 37.9523 56.197 37.7872 56.2957 37.5219C56.4261 37.1767 56.2516 36.7929 55.9079 36.6625L50.1662 34.5053C49.825 34.3788 49.4372 34.5504 49.3068 34.8946C49.1759 35.2407 49.3504 35.6256 49.6971 35.7525Z" fill="#D2042D"/>
<path d="M56.1881 21.3624L50.2744 22.992C49.9159 23.0892 49.7081 23.4571 49.8068 23.8112C49.8896 24.1073 50.1559 24.3002 50.449 24.3002C50.5065 24.3002 50.566 24.2922 50.626 24.2764L56.5397 22.6468C56.8953 22.5496 57.1036 22.1816 57.0074 21.8276C56.9092 21.473 56.5482 21.2637 56.1881 21.3624Z" fill="#D2042D"/>
<path d="M44.1149 14.6923C44.3093 14.6923 44.5052 14.607 44.6361 14.4418L48.4616 9.64733C48.6937 9.3597 48.6441 8.93967 48.3575 8.71055C48.0708 8.48144 47.6528 8.52954 47.4207 8.81569L43.5952 13.6102C43.3661 13.8978 43.4127 14.3179 43.7018 14.547C43.8233 14.6457 43.9681 14.6923 44.1149 14.6923Z" fill="#D2042D"/>
<path d="M33.3111 10.6437H33.3404C33.695 10.6437 33.9881 10.365 34.0039 10.007L34.2826 3.87896C34.3025 3.51348 34.0188 3.20155 33.6494 3.18419C33.2338 3.17625 32.9685 3.45347 32.9551 3.81994L32.6764 9.94797C32.661 10.3159 32.9447 10.6264 33.3111 10.6437Z" fill="#D2042D"/>
</svg>
